#!OML:ASF H:\ManfredETheater\Project 1\Capture day 1\Session 1\subject.ASF
:FULLY-SPECIFIED
:DEGREES
260
root 0.426796 17.4443 -17.4279 -166.648 -0.76343 179.044
lowerback 2.46401 0.397973 0.343316
upperback -4.39659 0.468342 1.93391
thorax -5.95457 0.186387 1.79019
lowerneck -16.5631 -1.94883 -2.92402
upperneck 13.7964 -2.05949 0.369671
head 6.97449 -1.13242 0.371951
rclavicle 2.78299e-015 1.03368e-014
rhumerus -37.0277 1.44916 -87.9761
rradius 41.0862
rwrist -1.76301
rhand -20.4044 -7.91192
rfingers 7.12502
rthumb 5.94936 -37.8084
lclavicle 2.78299e-015 1.03368e-014
lhumerus -41.4776 6.70732 87.8269
lradius 35.8487
lwrist -8.9285
lhand -10.5747 5.793
lfingers 7.12502
lthumb 15.4302 35.1971
rfemur -16.3994 -1.20146 21.4891
rtibia 35.0651
rfoot -28.733 -17.5128
rtoes -34.0496
lfemur -20.5848 -6.79562 -22.6693
ltibia 41.5177
lfoot -31.8809 3.63763
ltoes 9.70344
261
root 0.412927 17.4291 -17.496 -166.446 -0.74642 179.024
lowerback 2.44783 0.414046 0.368137
upperback -4.43472 0.4882 1.92679
thorax -5.9858 0.193763 1.76775
lowerneck -16.5971 -1.95971 -2.92539
upperneck 13.7359 -2.07375 0.389633
head 6.96103 -1.1361 0.377181
rclavicle 1.88845e-015 -3.02153e-014
rhumerus -37.0474 1.88839 -88.2876
rradius 41.5191
rwrist -1.93394
rhand -20.4325 -7.75013
rfingers 7.12502
rthumb 5.92229 -37.6474
lclavicle 1.88845e-015 -3.02153e-014
lhumerus -41.5858 6.48303 87.9771
lradius 36.0574
lwrist -8.77546
lhand -10.64 5.64249
lfingers 7.12502
lthumb 15.3673 35.0514
rfemur -16.3859 -1.20085 21.4323
rtibia 35.1284
rfoot -28.9082 -17.6349
rtoes -34.1361
lfemur -20.5395 -6.79571 -22.7432
ltibia 41.5235
lfoot -32.1328 3.66967
ltoes 9.40078
262
root 0.399354 17.4132 -17.566 -166.237 -0.74479 179
lowerback 2.43164 0.424734 0.384872
upperback -4.47152 0.500584 1.92061
thorax -6.01547 0.197878 1.75138
lowerneck -16.6397 -1.97157 -2.92335
upperneck 13.6659 -2.08903 0.40685
head 6.94592 -1.14013 0.380829
rclavicle 5.96354e-015 -2.14687e-014
rhumerus -37.0649 2.33317 -88.5998
rradius 41.9792
rwrist -2.1314
rhand -20.4635 -7.62001
rfingers 7.12502
rthumb 5.89233 -37.5181
lclavicle 5.96354e-015 -2.14687e-014
lhumerus -41.6948 6.23656 88.1402
lradius 36.2912
lwrist -8.60007
lhand -10.7095 5.50573
lfingers 7.12502
lthumb 15.3004 34.9198
rfemur -16.3731 -1.20353 21.3757
rtibia 35.1952
rfoot -29.0762 -17.7583
rtoes -34.2045
lfemur -20.4997 -6.79568 -22.8169
ltibia 41.5331
lfoot -32.3387 3.68723
ltoes 9.17354
263
root 0.386146 17.3967 -17.6379 -166.024 -0.756673 178.973
lowerback 2.41925 0.430718 0.393734
upperback -4.50862 0.506449 1.91609
thorax -6.04758 0.199197 1.74164
lowerneck -16.6797 -1.98395 -2.92309
upperneck 13.5831 -2.10507 0.428003
head 6.92624 -1.14412 0.386046
rclavicle 3.37934e-015 -2.46493e-014
rhumerus -37.0805 2.7788 -88.9089
rradius 42.46
rwrist -2.33275
rhand -20.4953 -7.5012
rfingers 7.12502
rthumb 5.86161 -37.4001
lclavicle 3.37934e-015 -2.46493e-014
lhumerus -41.8076 5.97018 88.3153
lradius 36.548
lwrist -8.40581
lhand -10.7828 5.3888
lfingers 7.12502
lthumb 15.2297 34.8082
rfemur -16.3609 -1.20797 21.3217
rtibia 35.2681
rfoot -29.2357 -17.8825
rtoes -34.2533
lfemur -20.465 -6.79362 -22.8883
ltibia 41.5471
lfoot -32.4978 3.69101
ltoes 9.01839
264
root 0.373307 17.3796 -17.7117 -165.809 -0.782698 178.935
lowerback 2.41209 0.431308 0.386047
upperback -4.54079 0.504807 1.91132
thorax -6.07746 0.197819 1.74145
lowerneck -16.731 -1.99797 -2.9242
upperneck 13.4888 -2.12268 0.451897
head 6.90481 -1.14845 0.392168
rclavicle -5.26779e-015 3.49861e-014
rhumerus -37.0841 3.2191 -89.2106
rradius 42.9649
rwrist -2.51984
rhand -20.5201 -7.41422
rfingers 7.12502
rthumb 5.83772 -37.3138
lclavicle -5.26779e-015 3.49861e-014
lhumerus -41.9111 5.68346 88.5036
lradius 36.8213
lwrist -8.1943
lhand -10.8657 5.27051
lfingers 7.12502
lthumb 15.1499 34.696
rfemur -16.3491 -1.22072 21.2604
rtibia 35.3523
rfoot -29.3899 -18.0056
rtoes -34.2914
lfemur -20.4311 -6.79173 -22.968
ltibia 41.5652
lfoot -32.6191 3.68602
ltoes 8.92143
265
root 0.360804 17.3618 -17.7871 -165.591 -0.82452 178.889
lowerback 2.41128 0.426632 0.367115
upperback -4.57122 0.495923 1.90585
thorax -6.10907 0.193544 1.74737
lowerneck -16.7787 -2.01423 -2.92519
upperneck 13.3777 -2.14321 0.475708
head 6.87742 -1.15403 0.398031
rclavicle -7.95139e-016 -2.14687e-014
rhumerus -37.0876 3.64781 -89.5029
rradius 43.4944
rwrist -2.68995
rhand -20.5427 -7.34518
rfingers 7.12502
rthumb 5.81587 -37.2454
lclavicle -7.95139e-016 -2.14687e-014
lhumerus -42.0153 5.37486 88.7028
lradius 37.1158
lwrist -7.97551
lhand -10.9517 5.1526
lfingers 7.12502
lthumb 15.067 34.5843
rfemur -16.34 -1.24891 21.1952
rtibia 35.4531
rfoot -29.5397 -18.1288
rtoes -34.3296
lfemur -20.3982 -6.78807 -23.0532
ltibia 41.5883
lfoot -32.7162 3.67002
ltoes 8.85564
266
root 0.348718 17.3429 -17.8641 -165.375 -0.877944 178.833
lowerback 2.42377 0.418491 0.334014
upperback -4.59939 0.482289 1.89899
thorax -6.14595 0.187826 1.76012
lowerneck -16.8264 -2.03174 -2.93295
upperneck 13.2528 -2.16499 0.508107
head 6.84569 -1.15965 0.4077
rclavicle 1.78906e-015 -2.70347e-014
rhumerus -37.0926 4.05557 -89.7828
rradius 44.0462
rwrist -2.8367
rhand -20.5684 -7.26413
rfingers 7.12502
rthumb 5.79109 -37.165
lclavicle 1.78906e-015 -2.70347e-014
lhumerus -42.1188 5.04021 88.9151
lradius 37.4314
lwrist -7.74782
lhand -11.0482 5.02647
lfingers 7.12502
lthumb 14.9741 34.4651
rfemur -16.3356 -1.2912 21.124
rtibia 35.5784
rfoot -29.6883 -18.2502
rtoes -34.3645
lfemur -20.3621 -6.78425 -23.1468
ltibia 41.6169
lfoot -32.8029 3.64965
ltoes 8.80309
267
root 0.33686 17.323 -17.9425 -165.162 -0.943409 178.767
lowerback 2.45186 0.405833 0.291118
upperback -4.6226 0.462921 1.89093
thorax -6.18649 0.180069 1.7775
lowerneck -16.8806 -2.0505 -2.94673
upperneck 13.1163 -2.18769 0.547321
head 6.8115 -1.16531 0.42044
rclavicle -2.88238e-015 2.14687e-014
rhumerus -37.0974 4.44729 -90.0492
rradius 44.6255
rwrist -2.96682
rhand -20.5799 -7.2026
rfingers 7.12502
rthumb 5.77993 -37.1038
lclavicle -2.88238e-015 2.14687e-014
lhumerus -42.2206 4.67896 89.1406
lradius 37.7732
lwrist -7.50904
lhand -11.1581 4.88414
lfingers 7.12502
lthumb 14.8681 34.3306
rfemur -16.3367 -1.36093 21.0469
rtibia 35.7375
rfoot -29.8446 -18.36
rtoes -34.3965
lfemur -20.319 -6.7766 -23.2488
ltibia 41.652
lfoot -32.8969 3.61941
ltoes 8.74869
268
root 0.325161 17.3016 -18.0223 -164.954 -1.02014 178.691
lowerback 2.49699 0.389488 0.239888
upperback -4.64335 0.438824 1.88013
thorax -6.23415 0.170631 1.79705
lowerneck -16.9277 -2.07223 -2.966
upperneck 12.9624 -2.21409 0.591964
head 6.77072 -1.17247 0.435551
rclavicle 4.07509e-015 5.56597e-015
rhumerus -37.1108 4.81819 -90.3036
rradius 45.2415
rwrist -3.07761
rhand -20.5811 -7.181
rfingers 7.12502
rthumb 5.77876 -37.0822
lclavicle 4.07509e-015 5.56597e-015
lhumerus -42.3294 4.28319 89.3812
lradius 38.1482
lwrist -7.25706
lhand -11.2773 4.73349
lfingers 7.12502
lthumb 14.7533 34.1884
rfemur -16.349 -1.46753 20.9622
rtibia 35.9437
rfoot -30.0111 -18.4503
rtoes -34.4255
lfemur -20.2669 -6.76509 -23.3606
ltibia 41.6936
lfoot -33.0108 3.57418
ltoes 8.70154
